<svg xmlns="http://www.w3.org/2000/svg" width="1280" height="820" viewBox="0 0 1280 820" role="img" aria-labelledby="title desc">
  <title id="title">MIDI DJ Box main groove workspace</title>
  <desc id="desc">Annotated screenshot-style diagram showing orchestra controls, status display, sequencer grid, transport buttons, and tempo control.</desc>
  <rect width="1280" height="820" fill="#07070b"/>
  <rect x="28" y="24" width="1224" height="145" rx="6" fill="#171720" stroke="#5c5a66" stroke-width="2"/>
  <text x="52" y="80" fill="#ffd166" font-family="Segoe UI, Arial" font-size="34" font-weight="800">MIDI DJ BOX</text>
  <rect x="300" y="45" width="640" height="48" rx="8" fill="#06150d" stroke="#2ce6a7"/>
  <text x="320" y="76" fill="#62ffb4" font-family="Consolas, monospace" font-size="17">AI groove built: Arabic Orchestra / Egyptian Darbuka Saidi</text>
  <rect x="975" y="45" width="150" height="48" rx="8" fill="#050505" stroke="#ffb703"/>
  <text x="1002" y="76" fill="#ffd166" font-family="Consolas, monospace" font-size="19" font-weight="800">108 BPM</text>
  <text x="52" y="128" fill="#ffb703" font-family="Segoe UI, Arial" font-size="15" font-weight="800">ORCHESTRA</text>
  <rect x="165" y="104" width="230" height="38" rx="8" fill="#0c0c12" stroke="#3f3d4a"/>
  <text x="183" y="128" fill="#f5f5ff" font-family="Segoe UI, Arial" font-size="15" font-weight="700">Arabic Orchestra</text>
  <text x="430" y="128" fill="#ffb703" font-family="Segoe UI, Arial" font-size="15" font-weight="800">SCALE / GROOVE</text>
  <rect x="560" y="104" width="275" height="38" rx="8" fill="#0c0c12" stroke="#3f3d4a"/>
  <text x="578" y="128" fill="#f5f5ff" font-family="Segoe UI, Arial" font-size="15" font-weight="700">Egyptian Darbuka Saidi</text>
  <rect x="28" y="185" width="1224" height="485" rx="4" fill="#101017" stroke="#3f3d4a" stroke-width="2"/>
  <rect x="58" y="215" width="1164" height="425" rx="14" fill="#0c0c12" stroke="#2b2b38"/>
  <g font-family="Segoe UI, Arial" font-size="14" fill="#d7d7e2" font-weight="700">
    <text x="80" y="275">Darbuka Doum</text>
    <text x="80" y="315">Darbuka Tek</text>
    <text x="80" y="355">Riq</text>
    <text x="80" y="395">Bendir</text>
    <text x="80" y="435">Frame Drum</text>
    <text x="80" y="475">Finger Cymbals</text>
    <text x="80" y="515">Oud Phrase</text>
    <text x="80" y="555">Qanun Phrase</text>
  </g>
  <g transform="translate(250 245)">
    <g fill="#20202a" stroke="#5f5f72">
      <rect x="0" y="-24" width="36" height="8" rx="3"/>
      <rect x="52" y="-24" width="36" height="8" rx="3"/>
      <rect x="104" y="-24" width="36" height="8" rx="3"/>
      <rect x="156" y="-24" width="36" height="8" rx="3"/>
      <rect x="208" y="-24" width="36" height="8" rx="3"/>
      <rect x="260" y="-24" width="36" height="8" rx="3"/>
      <rect x="312" y="-24" width="36" height="8" rx="3"/>
      <rect x="364" y="-24" width="36" height="8" rx="3"/>
      <rect x="416" y="-24" width="36" height="8" rx="3"/>
      <rect x="468" y="-24" width="36" height="8" rx="3"/>
      <rect x="520" y="-24" width="36" height="8" rx="3"/>
      <rect x="572" y="-24" width="36" height="8" rx="3"/>
      <rect x="624" y="-24" width="36" height="8" rx="3"/>
      <rect x="676" y="-24" width="36" height="8" rx="3"/>
      <rect x="728" y="-24" width="36" height="8" rx="3"/>
      <rect x="780" y="-24" width="36" height="8" rx="3"/>
    </g>
    <g fill="#343442" stroke="#5f5f72">
      <script type="text/plain">grid placeholder</script>
      <rect x="0" y="0" width="32" height="32" rx="7"/>
      <rect x="52" y="0" width="32" height="32" rx="7"/>
      <rect x="104" y="0" width="32" height="32" rx="7"/>
      <rect x="156" y="0" width="32" height="32" rx="7"/>
      <rect x="208" y="0" width="32" height="32" rx="7"/>
      <rect x="260" y="0" width="32" height="32" rx="7"/>
      <rect x="312" y="0" width="32" height="32" rx="7"/>
      <rect x="364" y="0" width="32" height="32" rx="7"/>
      <rect x="416" y="0" width="32" height="32" rx="7"/>
      <rect x="468" y="0" width="32" height="32" rx="7"/>
      <rect x="520" y="0" width="32" height="32" rx="7"/>
      <rect x="572" y="0" width="32" height="32" rx="7"/>
      <rect x="624" y="0" width="32" height="32" rx="7"/>
      <rect x="676" y="0" width="32" height="32" rx="7"/>
      <rect x="728" y="0" width="32" height="32" rx="7"/>
      <rect x="780" y="0" width="32" height="32" rx="7"/>
    </g>
    <g fill="#ffb703" stroke="#ffd166">
      <rect x="0" y="0" width="32" height="32" rx="7"/>
      <rect x="156" y="0" width="32" height="32" rx="7"/>
      <rect x="364" y="0" width="32" height="32" rx="7"/>
      <rect x="416" y="0" width="32" height="32" rx="7"/>
      <rect x="572" y="0" width="32" height="32" rx="7"/>
      <rect x="780" y="0" width="32" height="32" rx="7"/>
      <rect x="104" y="40" width="32" height="32" rx="7"/>
      <rect x="260" y="40" width="32" height="32" rx="7"/>
      <rect x="520" y="40" width="32" height="32" rx="7"/>
      <rect x="676" y="40" width="32" height="32" rx="7"/>
      <rect x="0" y="80" width="32" height="32" rx="7"/>
      <rect x="208" y="80" width="32" height="32" rx="7"/>
      <rect x="416" y="80" width="32" height="32" rx="7"/>
      <rect x="624" y="80" width="32" height="32" rx="7"/>
    </g>
  </g>
  <rect x="28" y="690" width="1224" height="104" fill="#111118" stroke="#292933"/>
  <g font-family="Segoe UI, Arial" font-size="15" font-weight="800">
    <rect x="52" y="716" width="75" height="36" rx="8" fill="#49485a"/><text x="73" y="739" fill="#f5f5ff">PLAY</text>
    <rect x="140" y="716" width="75" height="36" rx="8" fill="#49485a"/><text x="159" y="739" fill="#f5f5ff">STOP</text>
    <rect x="228" y="716" width="82" height="36" rx="8" fill="#49485a"/><text x="244" y="739" fill="#f5f5ff">CLEAR</text>
    <rect x="323" y="716" width="70" height="36" rx="8" fill="#49485a"/><text x="341" y="739" fill="#f5f5ff">SAVE</text>
    <rect x="406" y="716" width="72" height="36" rx="8" fill="#49485a"/><text x="424" y="739" fill="#f5f5ff">LOAD</text>
    <rect x="491" y="716" width="135" height="36" rx="8" fill="#49485a"/><text x="512" y="739" fill="#f5f5ff">AI GROOVE</text>
  </g>
  <text x="52" y="780" fill="#ffb703" font-family="Segoe UI, Arial" font-size="15" font-weight="800">TEMPO</text>
  <rect x="120" y="770" width="590" height="9" rx="5" fill="#0c0c12" stroke="#3f3d4a"/>
  <circle cx="350" cy="774" r="13" fill="#2ce6a7"/>
</svg>
